<svg xmlns="http://www.w3.org/2000/svg" width="592" height="167" viewBox="0 0 592 167" fill="none">
<path d="M128.69 59.1198C128.69 59.1198 128.69 59.2398 128.67 59.4598H59.4198L4.0498 0.509766H75.1098C75.1098 0.509766 128.85 2.45975 128.69 59.1198Z" fill="#5C49F7"/>
<path d="M128.67 59.46C128.5 64.42 123.44 120.87 59.4199 116.66V59.46H128.67Z" fill="#2F248B"/>
<path d="M0.910156 117.98V166.91H59.4202V59.46C27.1202 59.46 0.910156 85.6699 0.910156 117.98Z" fill="#A19CFF"/>
<path d="M192.38 68.8999C209.98 68.8999 224.37 83.1599 224.37 100.89C224.37 118.62 209.99 132.88 192.38 132.88C184.07 132.88 177.38 129.41 172.79 123.95V156.68H160.52V100.89C160.52 83.1599 174.78 68.8999 192.38 68.8999ZM212.21 100.88C212.21 89.5999 203.78 80.6699 192.37 80.6699C180.96 80.6699 172.53 89.5999 172.53 100.88C172.53 112.16 181.21 121.09 192.37 121.09C203.53 121.09 212.21 112.16 212.21 100.88Z" fill="#2F248B"/>
<path d="M231.18 99.5201C231.18 78.9401 242.21 69.6401 257.22 69.6401H258.46V81.4201H257.22C248.54 81.4201 243.33 87.0001 243.33 99.5201V131.88H231.18V99.5201Z" fill="#2F248B"/>
<path d="M261.56 100.88C261.56 83.1501 275.94 68.8901 293.55 68.8901C311.16 68.8901 325.41 83.1501 325.41 100.88V131.87H313.26V122.08C310.28 128.15 302.35 132.87 293.55 132.87C275.94 132.87 261.56 118.61 261.56 100.88ZM313.38 100.88C313.38 89.6001 305.07 80.6701 293.67 80.6701C282.27 80.6701 273.71 89.6001 273.71 100.88C273.71 112.16 282.39 121.09 293.67 121.09C304.95 121.09 313.38 112.16 313.38 100.88Z" fill="#2F248B"/>
<path d="M332.22 100.88C332.22 83.1501 346.48 68.8901 364.21 68.8901C377.85 68.8901 389.38 77.4401 393.72 89.3501H380.7C377.23 84.1401 371.4 80.6701 364.33 80.6701C352.92 80.6701 344.37 89.6001 344.37 100.88C344.37 112.16 353.05 121.09 364.33 121.09C371.27 121.09 376.98 117.74 380.45 112.66H393.72C389.26 124.56 377.73 132.87 364.21 132.87C346.48 132.87 332.22 118.61 332.22 100.88Z" fill="#2F248B"/>
<path d="M419.009 81.67V102.5C419.009 114.28 423.599 119.73 432.399 120.48V132.26C417.519 131.64 406.989 122.59 406.859 102.63V81.68H397.689V69.9H406.859V47.71H419.009V69.9H432.399V81.68H419.009V81.67Z" fill="#2F248B"/>
<path d="M438.22 53.9C438.22 49.69 441.44 46.46 445.66 46.46C449.88 46.46 452.97 49.68 452.97 53.9C452.97 58.12 449.75 61.34 445.66 61.34C441.57 61.34 438.22 58.12 438.22 53.9ZM439.59 69.89H451.74V131.88H439.59V69.89Z" fill="#2F248B"/>
<path d="M459.789 100.88C459.789 83.1501 474.049 68.8901 491.779 68.8901C505.419 68.8901 516.949 77.4401 521.289 89.3501H508.269C504.799 84.1401 498.969 80.6701 491.899 80.6701C480.489 80.6701 471.939 89.6001 471.939 100.88C471.939 112.16 480.619 121.09 491.899 121.09C498.839 121.09 504.549 117.74 508.019 112.66H521.289C516.829 124.56 505.299 132.87 491.779 132.87C474.049 132.87 459.789 118.61 459.789 100.88Z" fill="#2F248B"/>
<path d="M559.099 68.8999C575.089 68.8999 590.469 80.5499 591.089 99.7699C591.089 101.88 590.969 103.74 590.719 105.35H540.629C541.619 114.52 549.059 121.1 559.099 121.1C565.919 121.1 570.749 118.37 573.979 114.9L588.489 115.02C583.159 125.68 571.999 132.87 559.479 132.87C541.629 132.87 527.619 118.61 527.619 101.01C527.619 83.4099 541.259 68.8999 559.109 68.8999H559.099ZM578.069 95.4299C575.839 86.9999 568.399 80.6799 559.469 80.6799C549.799 80.6799 542.859 86.9999 540.619 95.4299H578.059H578.069Z" fill="#2F248B"/>
<path d="M173.84 26.4302C181.28 26.4302 187.36 32.4602 187.36 39.9502C187.36 47.4402 181.28 53.4702 173.84 53.4702C170.33 53.4702 167.5 52.0002 165.56 49.7002V63.5402H160.37V39.9502C160.37 32.4502 166.4 26.4302 173.84 26.4302ZM182.22 39.9502C182.22 35.1802 178.66 31.4102 173.83 31.4102C169 31.4102 165.44 35.1802 165.44 39.9502C165.44 44.7202 169.11 48.4902 173.83 48.4902C178.55 48.4902 182.22 44.7202 182.22 39.9502Z" fill="#2F248B"/>
<path d="M190.24 39.3702C190.24 30.6702 194.91 26.7402 201.25 26.7402H201.77V31.7202H201.25C197.58 31.7202 195.38 34.0802 195.38 39.3702V53.0502H190.24V39.3702Z" fill="#2F248B"/>
<path d="M203.08 39.9502C203.08 32.4502 209.16 26.4302 216.6 26.4302C224.04 26.4302 230.07 32.4602 230.07 39.9502V53.0502H224.93V48.9102C223.67 51.4802 220.32 53.4702 216.6 53.4702C209.16 53.4702 203.08 47.4402 203.08 39.9502ZM224.99 39.9502C224.99 35.1802 221.48 31.4102 216.66 31.4102C211.84 31.4102 208.22 35.1802 208.22 39.9502C208.22 44.7202 211.89 48.4902 216.66 48.4902C221.43 48.4902 224.99 44.7202 224.99 39.9502Z" fill="#2F248B"/>
<path d="M232.69 45.1902H237.62C237.62 47.4402 239.98 48.8602 243.07 48.8602C246.32 48.8602 248.1 47.4402 248.1 45.4002C248.05 39.4802 233.11 43.9802 233.11 33.8202C233.11 29.4202 237.41 26.4302 242.81 26.4302C248.21 26.4302 252.4 29.2602 252.4 34.2902H247.47C247.47 32.2502 245.27 30.9902 242.7 30.9902C240.13 30.9902 238.24 32.2502 238.24 34.1902C238.24 39.4302 253.07 35.4002 253.23 45.5102C253.28 50.8602 248.83 53.4802 242.96 53.4802C237.56 53.4802 232.69 50.5502 232.69 45.2002V45.1902Z" fill="#2F248B"/>
<path d="M276.35 48.0703V53.0503H255.33V48.0703L269.32 31.8203H256.06V26.8403H275.87V31.8203L261.82 48.0703H276.34H276.35Z" fill="#2F248B"/>
<path d="M304.181 39.9502C304.181 47.4502 298.151 53.4702 290.661 53.4702C283.171 53.4702 277.141 47.4402 277.141 39.9502C277.141 32.4602 283.171 26.4302 290.661 26.4302C298.151 26.4302 304.181 32.4602 304.181 39.9502ZM282.271 39.9502C282.271 44.7202 285.941 48.4902 290.711 48.4902C295.481 48.4902 299.041 44.7202 299.041 39.9502C299.041 35.1802 295.531 31.4102 290.711 31.4102C285.891 31.4102 282.271 35.1802 282.271 39.9502Z" fill="#2F248B"/>
</svg>